<svg xmlns="http://www.w3.org/2000/svg" viewBox="0 0 560 420" fill="none" role="img" aria-label="Online assessment illustration">
  <rect width="560" height="420" rx="24" fill="#f0f4ff"/>
  <rect x="40" y="48" width="480" height="300" rx="16" fill="#ffffff" stroke="#dbeafe" stroke-width="2"/>
  <rect x="40" y="48" width="480" height="44" rx="16" fill="#eff6ff"/>
  <circle cx="68" cy="70" r="6" fill="#fca5a5"/>
  <circle cx="88" cy="70" r="6" fill="#fcd34d"/>
  <circle cx="108" cy="70" r="6" fill="#86efac"/>
  <rect x="68" y="116" width="180" height="12" rx="6" fill="#2563eb" opacity="0.15"/>
  <rect x="68" y="140" width="140" height="8" rx="4" fill="#64748b" opacity="0.2"/>
  <rect x="68" y="172" width="420" height="48" rx="10" fill="#f8fafc" stroke="#e2e8f0"/>
  <circle cx="92" cy="196" r="10" stroke="#2563eb" stroke-width="2"/>
  <circle cx="92" cy="196" r="4" fill="#2563eb"/>
  <rect x="116" y="188" width="200" height="8" rx="4" fill="#334155" opacity="0.35"/>
  <rect x="68" y="236" width="420" height="48" rx="10" fill="#f8fafc" stroke="#e2e8f0"/>
  <circle cx="92" cy="260" r="10" stroke="#94a3b8" stroke-width="2"/>
  <rect x="116" y="252" width="180" height="8" rx="4" fill="#334155" opacity="0.25"/>
  <rect x="68" y="300" width="420" height="48" rx="10" fill="#f8fafc" stroke="#e2e8f0"/>
  <circle cx="92" cy="324" r="10" stroke="#94a3b8" stroke-width="2"/>
  <rect x="116" y="316" width="220" height="8" rx="4" fill="#334155" opacity="0.25"/>
  <rect x="360" y="116" width="128" height="128" rx="16" fill="#2563eb" opacity="0.08"/>
  <path d="M424 152v56M396 180h56" stroke="#2563eb" stroke-width="4" stroke-linecap="round"/>
  <circle cx="424" cy="180" r="36" stroke="#2563eb" stroke-width="3" opacity="0.35"/>
  <rect x="120" y="368" width="120" height="36" rx="10" fill="#2563eb"/>
  <rect x="252" y="368" width="120" height="36" rx="10" fill="#eff6ff" stroke="#bfdbfe"/>
</svg>
